<svg id="Google_mic" xmlns="http://www.w3.org/2000/svg" width="22.566" height="32.419" viewBox="0 0 22.566 32.419">
  <path id="Trazado_9326" data-name="Trazado 9326" d="M89.543,20.992A4.841,4.841,0,0,1,84.7,16.149V4.843a4.843,4.843,0,1,1,9.686,0V16.149A4.841,4.841,0,0,1,89.543,20.992Z" transform="translate(-78.26)" fill="#4285f4"/>
  <rect id="Rectángulo_2796" data-name="Rectángulo 2796" width="3.231" height="5.923" transform="translate(9.671 26.497)" fill="#34a853"/>
  <path id="Trazado_9327" data-name="Trazado 9327" d="M59.38,213.108A8.086,8.086,0,0,1,45.558,218.8L43.3,221.06a11.285,11.285,0,0,0,19.274-7.96H59.38Z" transform="translate(-40.008 -196.898)" fill="#ea4335"/>
  <path id="Trazado_9328" data-name="Trazado 9328" d="M5.55,218.895A8.059,8.059,0,0,1,3.193,213.2H0a11.243,11.243,0,0,0,3.292,7.953Z" transform="translate(0 -196.99)" fill="#fbbc05"/>
</svg>
